/* XPM */
static char *_fe0fee546fa4379f94c7cf0fa01b868TKpDkoj9B6QM6FJk[] = {
/* columns rows colors chars-per-pixel */
"32 32 6 1 ",
"  c #091D47",
". c #0E2E5B",
"X c #051638",
"o c #131313",
"O c #174373",
"+ c white",
/* pixels */
"  .....   .....   .....   ..... ",
"X  ...  X  ...  X  ...  X  ...  ",
"oX  .  XoX  .  XoX  .  XoX  .  X",
"OoX   XoOoX   XoOoX   XoOoX   Xo",
".OoX XoO.OoX XoO.OoX XoO.OoX XoO",
"..OoXoO...OoXoO...OoXoO...OoXoO.",
"...OoO.....OoO.....OoO.....OoO..",
" ...O... ...O... ...O... ...O...",
"  .....   .....   .....   ..... ",
"X  ...  X  ...  X  ...  X  ...  ",
"oX  .  XoX  .  XXX  .  XoX  .  X",
"OoX   XoOoX   XoooX   XoOoX   Xo",
".OoX XoO.OoX XoooXoX XoO.OoX XoO",
"..OoXoO...OoXoXooX oXoO...OoXoO.",
"...OoO.....Oo XooX OoO.....OoO..",
" ...O... ...O.XooX .O... ...O...",
"  .....   ... XooX ....   ..... ",
"X  ...  X  .. XooX ...  X  ...  ",
"oX  .  XoX  . XooX  .  XoX  .  X",
"OoX   XoOoX   XoooX   XoOoX   Xo",
".OoX XoO.OoX XoO.OoX XoO.OoX XoO",
"..OoXoO...OoXoO...OoXoO...OoXoO.",
"...OoO.....OoO.....OoO.....OoO..",
" ...O... ...O... ...O... ...O...",
"  .....   .....   .....   ..... ",
"X  ...  X  ...  X  ...  X  ...  ",
"oX  .  XoX  .  XoX  .  XoX  .  X",
"OoX   XoOoX   XoOoX   XoOoX   Xo",
".OoX XoO.OoX XoO.OoX XoO.OoX XoO",
"..OoXoO...OoXoO...OoXoO...OoXoO.",
"...OoO.....OoO.....OoO.....OoO..",
" ...O... ...O... ...O... ...O..."
};
