/* XPM */
static char *e6c5656fbd524244da71ff8ed15df682aRXaqtFxpxnG87aq[] = {
/* columns rows colors chars-per-pixel */
"32 32 9 1 ",
"  c #48295C",
". c #653175",
"X c #131313",
"o c #332144",
"O c #8F3A94",
"+ c #B32F5E",
"@ c #8E225D",
"# c #731857",
"$ c white",
/* pixels */
"   .X.     oXo     .X.     oXo  ",
"   .X.     oXo     .X.     oXo  ",
"....X ooooooX ......X ooooooX ..",
"XXXXXXXXXXXXXXXXXXXXXXXXXXXXXXXX",
"... X      .XOOOOOO.X      .X...",
"   oX .....OXO..... X .....OX.  ",
"   oX .....OXO..... X .....OX.  ",
"   oX .....OXO..... X .....OX.  ",
"   oX .....OXO..... X .....OX.  ",
"   oX .....OX.      X .....OX.  ",
"ooooX.OOOOOXXXXXXXXXX.OOOOOOX oo",
"XXXXXXXXXXX++++@X+++@XXXXXXXXXXX",
"ooo XOOOO.X+@@@#X+@@#XOOOOO.Xooo",
"   .XO... X+@@@#X+@@#XO.... Xo  ",
"   .XO... X@####X@###XO.... Xo  ",
"   .XO... XXXXXXXXXXXXO.... Xo  ",
"   .XO... X++++@X+++@XO.... Xo  ",
"   .XO... X+@@@#X+@@#XO.... Xo  ",
"....X.    X+@@@#X+@@#X.     X ..",
"XXXXXXXXXXX@####X@###XXXXXXXXXXX",
"... X      XXXXXXXXXX      .X...",
"   oX .....OXOOOOOO.X .....OX.  ",
"   oX .....OXO..... X .....OX.  ",
"   oX .....OXO..... X .....OX.  ",
"   oX .....OXO..... X .....OX.  ",
"   oX .....OXO..... X .....OX.  ",
"ooooX.OOOOOOX.      X.OOOOOOX oo",
"XXXXXXXXXXXXXXXXXXXXXXXXXXXXXXXX",
"ooo X...... Xoooooo X...... Xooo",
"   .X.     oXo     .X.     oXo  ",
"   .X.     oXo     .X.     oXo  ",
"   .X.     oXo     .X.     oXo  "
};
