/* XPM */
static char *result[] = {
/* columns rows colors chars-per-pixel */
"32 32 104 2 ",
"   c black",
".  c gray2",
"X  c #0B0B0B",
"o  c #130E0C",
"O  c #0F0614",
"+  c #010915",
"@  c #010916",
"#  c #040E1B",
"$  c #040E1C",
"%  c #111111",
"&  c #291E1A",
"*  c #2E231F",
"=  c #010F26",
"-  c #081523",
";  c #11142C",
":  c #1E122D",
">  c #031430",
",  c #021737",
"<  c #210F2C",
"1  c #08203E",
"2  c #362923",
"3  c #3D2D27",
"4  c #3E2C26",
"5  c #38252F",
"6  c #3D332C",
"7  c #2A2730",
"8  c #432E27",
"9  c #4E322C",
"0  c #423830",
"q  c #453A32",
"w  c #493D34",
"e  c #4A3E34",
"r  c #4C3F36",
"t  c #503E35",
"y  c #543F36",
"u  c #5A3B34",
"i  c #544339",
"p  c #57493E",
"a  c #5A493E",
"s  c #051E46",
"d  c #221842",
"f  c #301641",
"g  c #1F224B",
"h  c #112F4E",
"j  c #0D2F5A",
"k  c #29244F",
"l  c #322359",
"z  c #3F215A",
"x  c #252D61",
"c  c #383B6D",
"v  c #2A3C7D",
"b  c #343475",
"n  c #512E78",
"m  c #403178",
"M  c #4B367B",
"N  c #1A4471",
"B  c #5E4E42",
"V  c #674E43",
"C  c #6A4F43",
"Z  c #675044",
"A  c #6E5045",
"S  c #655548",
"D  c #6F5E4F",
"F  c #705549",
"G  c #73574A",
"H  c #715B4D",
"J  c #735A4D",
"K  c #765D4F",
"L  c #785B4E",
"P  c #7B5E50",
"I  c #756253",
"U  c #7E6455",
"Y  c #494166",
"T  c #5A4869",
"R  c #725577",
"E  c #846D5C",
"W  c #897462",
"Q  c #463680",
"!  c #603A91",
"~  c #2E4285",
"^  c #37428E",
"/  c #776C89",
"(  c #454AA5",
")  c #454FAC",
"_  c #585AB3",
"`  c #5451BA",
"'  c #6149AF",
"]  c #6C4FB2",
"[  c #6465BB",
"{  c #7165B8",
"}  c #4959C2",
"|  c #565FD2",
" . c #6D5EC0",
".. c #635DD3",
"X. c #6266C9",
"o. c #6F6BD8",
"O. c #7C69D9",
"+. c #656DF1",
"@. c #7072F4",
"#. c #7D79F7",
"$. c #897791",
"%. c #8474C5",
"&. c #897BCB",
"*. c #897FFB",
/* pixels */
"s s j j j j j s s s j j j 1 1 > > s j j j j j s s s j j j j j s ",
", s s j j j s s , s s 1 1         > > j j j s s , s s j j j s s ",
"% , s s j s s , % , >     O O O O     > 1 s s , % , s s j s s , ",
"N % , s s s , % N X   O O f z z z O O     > , % N % , s s s , % ",
"j N % , s , % N 1   O f z z ! ! ! z z O O   X N j N % , s , % N ",
"j j N % , % N 1   O f z ! ! ! ! ! ! ! z f O   1 j j N % , % N j ",
"j j j N % N j     f z ! ! ! ! ! ! ! ! ! z f O   1 j j N % N j j ",
"s j j j N j 1 ; g m ' ! ! ! ! ! ! ! ! ! ! z f     j j j N j j j ",
"s s j j j 1 ; ) +.@.@.] ] ! ! ! ! ! ! ! ! ! f O   > j j j j j s ",
", s s j j   ^ +.@.*.*.*.*.] ' ! ! ! ! ! ! ! z f     s j j j s s ",
"% , s s j   ^ ( %.%.%.%.%.#.@.' ! ! ! ! ! ! ! f     s s j s s , ",
"N % , s s @ x o P P L K J [ #.@.' ! ! ! ! ! ! f     , s s s , % ",
"j N % , s , . 3 G F Z B p p _ #.@.! ! ! ! ! n f     % , s , % N ",
"j j N % , % N 3 y t e 6 6 6 6 _ *.! ! ! ! ! f f     N % , % N j ",
"j j j N % N j 3 2 6 6 6 6 6 6 6 *.! ! ! ! n f <     j N % N j j ",
"s j j j N j j 3 4 0 6 6 6 6 6 q #.! ! ! n f f       j j N j j j ",
"s s j j j j j 3 9 a r w w w r S +.! n n f f <       j j j j j s ",
", s s j j j s 7 8 A H D D D I / | n f f f <       @ s j j j s s ",
"% , s s j s s , * u C U U $.$.| b f f < <         , s s j s s , ",
"N % , s s s , % h Y T R R #. .x < < <           - % , s s s , % ",
"j N % , s , % N   ` O.O.O...z : O O : : O       j N % , s , % N ",
"j j N % , % N j   m ! ! ! ! ! n M M ] ' m g     1 j N % , % N j ",
"j j j N % N j j   | ' ] ] ] ] m  .O. .( | ( g ;   j j N % N j j ",
"s j j j N j j j   ^ `  . .o.{ ` z ! z   ) O ( ^   j j j N j j j ",
"s s j j j j j s   ^ f z z c i M ! ! n   @.f   ^   > j j j j j s ",
", s s j j j s s   x m ! ! 3 W &.' n <   *.m g )     s j j j s s ",
"% , s s j s s = ;   +.' ' 3 U E +.<   O *.` ` +.    s s j s s , ",
"N % , s s s ,   ^ ; +.` ..Y u V | ;   f *.f f ( ;   , s s s , % ",
"j N % , s , %   ^ x ( f n +.& 5 x x O z *.f f O ^   % , s , % N ",
"j j N % , % N $ x ; ; < f +.  f : : z ! *.f f m ^   N % , % N j ",
"j j j N % N j j $ x x ; l |   < n ! ! !  .M m ( x $ j N % N j j ",
"s j j j N j j j s # # v ~ v # # d Q Q Q k X.} # + j j j N j j j "
};
