/* XPM */
static char *result[] = {
/* columns rows colors chars-per-pixel */
"32 32 141 2 ",
"   c #000102",
".  c #04050B",
"X  c #0C0C0D",
"o  c #0E0613",
"O  c #010915",
"+  c #040E1B",
"@  c #110717",
"#  c #120919",
"$  c #04101F",
"%  c #111111",
"&  c #2B1E1C",
"*  c #34221D",
"=  c #020E22",
"-  c #1E0E29",
";  c #041122",
":  c #081422",
">  c #04142E",
",  c #091828",
"<  c #10142B",
"1  c #021737",
"2  c #081E3A",
"3  c #151833",
"4  c #21102E",
"5  c #241132",
"6  c #2D143D",
"7  c #09213F",
"8  c #332423",
"9  c #362924",
"0  c #382C26",
"q  c #3D332C",
"w  c #282732",
"e  c #2B2D39",
"r  c #312F38",
"t  c #42352D",
"y  c #433830",
"u  c #4A3C34",
"i  c #523E35",
"p  c #4D4037",
"a  c #534039",
"s  c #57493E",
"d  c #64483E",
"f  c #051E46",
"g  c #301642",
"h  c #321846",
"j  c #321A4B",
"k  c #3C1F55",
"l  c #102C49",
"z  c #0C2D55",
"x  c #0D2F5A",
"c  c #123050",
"v  c #21234E",
"b  c #2A274D",
"n  c #2A284F",
"m  c #3E3345",
"M  c #292352",
"N  c #242B5C",
"B  c #32245A",
"V  c #3F2159",
"C  c #262D62",
"Z  c #343565",
"A  c #32336B",
"S  c #353868",
"D  c #3B3C6B",
"F  c #363772",
"G  c #3F3076",
"H  c #37367B",
"J  c #41225D",
"K  c #4E2D74",
"L  c #512F79",
"P  c #483476",
"I  c #43337C",
"U  c #4C367B",
"Y  c #19416D",
"T  c #1A4471",
"R  c #5D4E42",
"E  c #634740",
"W  c #644D47",
"Q  c #684F43",
"!  c #605044",
"~  c #6C5649",
"^  c #6E5C4E",
"/  c #735D4F",
"(  c #7A5D4F",
")  c #755D55",
"_  c #766354",
"`  c #7F6455",
"'  c #7D6959",
"]  c #5F4B72",
"[  c #624B6D",
"{  c #685074",
"}  c #65537B",
"|  c #836D5C",
" . c #86715F",
".. c #857265",
"X. c #887361",
"o. c #343D85",
"O. c #363F89",
"+. c #493C88",
"@. c #5D378C",
"#. c #5D388E",
"$. c #603A92",
"%. c #3A428B",
"&. c #3C4591",
"*. c #7D6784",
"=. c #7F6884",
"-. c #444AA4",
";. c #5D46A6",
":. c #5F47A9",
">. c #5F48AB",
",. c #5A53A5",
"<. c #5E57AC",
"1. c #5552BB",
"2. c #6249AE",
"3. c #6A4DAE",
"4. c #624CB1",
"5. c #6C4FB2",
"6. c #6D51B5",
"7. c #625FB1",
"8. c #6663B5",
"9. c #6D69B8",
"0. c #5159C4",
"q. c #555CCB",
"w. c #565ED0",
"e. c #6D5EC1",
"r. c #645DD3",
"t. c #5860D0",
"y. c #6E6BD5",
"u. c #7A67D6",
"i. c #7C69D9",
"p. c #5E66E1",
"a. c #6167E6",
"s. c #636AEB",
"d. c #6F70EF",
"f. c #7172F2",
"g. c #7C77F4",
"h. c #7D79F6",
"j. c #8474C5",
"k. c #8678C9",
"l. c #867BF5",
"z. c #877EFA",
"x. c #897EFA",
/* pixels */
"f f x x x x x f f f x x x 7 2       7 7 x x x f f f x x x x x f ",
"1 f f x x x f f 1 f f x 2     o o o     7 x f f 1 f f x x x f f ",
"% 1 f f x f f 1 % 1 f >   o @ V V k o o   1 f 1 % 1 f f x f f 1 ",
"T % 1 f f f 1 % T X =   @ g J $.$.#.V 6 o   ; % T % 1 f f f 1 % ",
"x T % 1 f 1 % T z l   @ g J $.$.$.#.#.k 6 @   c x T % 1 f 1 % T ",
"x x T % 1 % T x 2   @ g J $.$.$.$.$.$.@.V 6 o   f x T % 1 % T x ",
"x x x T % T x 2     g J #.$.$.2.5.2.$.#.#.V 6   . 7 x T % T x x ",
"f x x x T x z     # J $.$.2.6.f.z.d.5.2.$.@.k o   . x x T x x x ",
"f f x x x z 2     h $.2.6.f.z.x.x.x.z.f.5.2.@.6     f x x x x f ",
"1 f f x z z     # J 4.f.l.j.j.j.j.j.j.j.h.d.:.k o     x x x f f ",
"% 1 f f x f     h 3.t.e.7./ ( | ` ` ( ) 7.e.w.:.6     f x f f 1 ",
"T % 1 f f f     j q.D a p d ~ ' ' ' ~ R a a D q.6     f f f 1 % ",
"x T % 1 f 1     B Z 9 0 q q u s s s u q q 9 9 A M     1 f 1 % T ",
"x x T % 1 %     %.& * t q q q q q q q q q q 9 & o.  . % 1 % T x ",
"x x x T % Y   . %.* t t q q q y u y q q q q t 8 o.  . Y % T x x ",
"f x x x T x +   N r i u u u p ! ^ R u u u u i m N   : x T x x x ",
"f f x x x x z   . O.[ d ~ ^ _  .X.' _ ^ ~ E ] o.    x x x x x f ",
"1 f f x x x 2   . H q.{ =.`  . .|  .| ' *.} q.A   . f x x x f f ",
"% 1 f f x f 1 <   5 H r.y.{ =.=.=.=.=.} y.w.F -   < 1 f x f f 1 ",
"T % 1 f f f   C n b 5 L O.y.i.i.i.i.i.r.+.K 4 n n N   f f f 1 % ",
"x T % 1 f +   # <.,.v I 4.6.6.6.6.6.6.3.>.G v <.,.o   ; f 1 % T ",
"x x T % 1   @ k o . q.1.1.6.6.e.g.e.e.e.1.1.0.  @ V o   1 % T x ",
"x x x Y X 3 U @.6 . O.g J J J +.d.P V V V g o.  h #.P < X T x x ",
"f x x z . &.k.;.- . -.h $.$.5.i.i.u.6.#.@.h -.  5 4.j.o.. x x x ",
"f f x x = D ..8.< . s.I 5.6.l.$.$.$.x.5.3.I p.  3 9...S $ x x f ",
"1 f f x z r / W o.o s.1.i.i.l.$.$.$.x.u.u.0.p.. %.Q ^ e x x f f ",
"% 1 f f x f w 4 N . a.h $.$.u.6.5.6.u.$.@.j t.. N & w f x f f 1 ",
"T % 1 f f f ,     . q.h $.$.$.i.x.u.$.$.@.j 0.      1 f f f 1 % ",
"x T % 1 f 1 % :     O.h L $.$.$.l.$.$.$.K h o.    , % 1 f 1 % T ",
"x x T % 2 % T z + . C B I 5.6.6.l.5.5.3.G B N   ; x T % 1 % T x ",
"x x x T % T x x z + : C -.<.<.<.<.<.<.<.-.N + : x x x T % T x x ",
"f x x x T x x x f x z + : + + + O + + + : $ x x f x x x T x x x "
};
