/* XPM */
static char *result[] = {
/* columns rows colors chars-per-pixel */
"32 32 153 2 ",
"   c black",
".  c #000001",
"X  c #000101",
"o  c #000103",
"O  c #020103",
"+  c gray1",
"@  c #000104",
"#  c #030104",
"$  c #000204",
"%  c #000305",
"&  c #020307",
"*  c #040404",
"=  c #00040A",
"-  c #03040A",
";  c #00050C",
":  c #00050D",
">  c #01060E",
",  c #05060D",
"<  c #06070F",
"1  c #08030B",
"2  c #09040C",
"3  c #0B050F",
"4  c #08070F",
"5  c #08080F",
"6  c gray5",
"7  c #010710",
"8  c #0C0510",
"9  c #020810",
"0  c #020811",
"q  c #030B15",
"w  c #040B17",
"e  c #040D15",
"r  c #060B18",
"t  c #090B18",
"y  c #0F0A18",
"u  c #090C1B",
"i  c #0A0C1A",
"p  c #0A0C1B",
"a  c #0A0E1E",
"s  c #06101B",
"d  c #111111",
"f  c #0D0F20",
"g  c #01122C",
"h  c #01132D",
"j  c #02122C",
"k  c #12132C",
"l  c #12142D",
"z  c #18162C",
"x  c #011534",
"c  c #021737",
"v  c #041737",
"b  c #041839",
"n  c #1A1933",
"m  c #181937",
"M  c #191937",
"N  c #1C1A35",
"B  c #241031",
"V  c #271134",
"C  c #261234",
"Z  c #271235",
"A  c #2A1339",
"S  c #2D143C",
"D  c #2D143D",
"F  c #041C42",
"G  c #041D45",
"H  c #051E46",
"J  c #2F1540",
"K  c #301641",
"L  c #321745",
"P  c #331846",
"I  c #361B4B",
"U  c #311E4F",
"Y  c #381C4F",
"T  c #311E50",
"R  c #391C50",
"E  c #3B1E54",
"W  c #092344",
"Q  c #092345",
"!  c #0A2649",
"~  c #0A264A",
"^  c #0C2C54",
"/  c #0C2C55",
"(  c #0C2E59",
")  c #0D2F5A",
"_  c #15375C",
"`  c #15385D",
"'  c #342359",
"]  c #3B215A",
"[  c #3C215A",
"{  c #392560",
"}  c #392662",
"|  c #3C2A6A",
" . c #29326C",
".. c #29326D",
"X. c #2C3471",
"o. c #2C3573",
"O. c #2F3778",
"+. c #35397F",
"@. c #422A66",
"#. c #54317D",
"$. c #194370",
"%. c #1A4471",
"&. c #383B84",
"*. c #383C86",
"=. c #3B3C86",
"-. c #573382",
";. c #573688",
":. c #593789",
">. c #5D378C",
",. c #55388A",
"<. c #5D388C",
"1. c #583B90",
"2. c #5F3990",
"3. c #603A91",
"4. c #603A92",
"5. c #603D97",
"6. c #623D96",
"7. c #623E97",
"8. c #3E408E",
"9. c #3C4597",
"0. c #3E469A",
"q. c #4E54BA",
"w. c #4F56BE",
"e. c #5055BD",
"r. c #6746A3",
"t. c #6746A4",
"y. c #6949A9",
"u. c #694AAA",
"i. c #6860BF",
"p. c #5258C3",
"a. c #585ACA",
"s. c #5B5CD0",
"d. c #5B5DD2",
"f. c #595FD3",
"g. c #5960D4",
"h. c #6961C0",
"j. c #6D64C8",
"k. c #7668D3",
"l. c #5E66E1",
"z. c #6569E3",
"x. c #6268E8",
"c. c #646BEE",
"v. c #686BE8",
"b. c #7F6EE1",
"n. c #7F6FE2",
"m. c #7A73E9",
"M. c #7F77F1",
"N. c #8172E7",
"B. c #8172E8",
"V. c #8077EB",
"C. c #867AF4",
"Z. c #867BF5",
"A. c #887EF9",
/* pixels */
"H H ) ) ) ) ) H H H ) ) ) ) ! . . > ) ) ) ) ) H H H ) ) ) ) ) H ",
"c H H ) ) ) H H c H H ) ~ % o     . @ q ) ) H H c H H ) ) ) H H ",
"d c H H ) H H c d c H b $   1 S S B   . q H H c d c H H ) H H c ",
"%.d c H H H c d %.d h o 1 S I >.>.#.S B . 7 c d %.d c H H H c d ",
") %.d c H c d %.) `   1 D Y <.3.3.2.#.J B   * %.) %.d c H c d %.",
") ) %.d c d %.) ~ $ 1 D Y <.3.3.3.3.2.#.J B X q ) ) %.d c d %.) ",
") ) ) %.d %.) ~ $ 1 D Y <.3.3.3.3.3.3.2.#.J B . q ) ) %.d %.) ) ",
"H ) ) ) %.) ~ $   2 Y <.3.3.3.3.3.3.3.3.2.#.V   . q ) ) %.) ) ) ",
"H H ) ) ) ) !   1 D R 3.3.3.3.3.3.3.3.3.3.-.J B   : ) ) ) ) ) H ",
"c H H ) ) ~ o   2 Y <.3.3.3.3.3.3.3.3.3.3.2.#.V   . 7 ) ) ) H H ",
"d c H H ) b   1 D R 3.3.3.3.3.3.3.3.3.3.3.3.-.J B   : H ) H H c ",
"%.d c H H b   2 K R 3.3.3.3.3.3.3.3.3.3.3.3.-.K V   = H H H c d ",
") %.d c H g   2 K R 3.3.3.3.3.3.3.3.3.3.3.3.-.K V   + c H c d %.",
") ) %.d c 6     3 K E 3.3.3.3.3.3.3.3.3.3.-.L Z O   e d c d %.) ",
") ) ) %.d _     2 K K E 3.3.3.3.3.3.3.3.-.L K V     0 %.d %.) ) ",
"H ) ) ) %.!       3 K K P E 3.3.3.3.-.P L K Z O     0 ) %.) ) ) ",
"H H ) ) ) ( W       3 K K K P P P P L K K Z O     ; / ) ) ) ) H ",
"c H H ) ) ) b         3 K K K K K K K K Z O       : H ) ) ) H H ",
"d c H H ) H b           # 3 K K K K Z # O         = H H ) H H c ",
"%.d c H H b u  .            # # # # O           t  .: H H H c d ",
") %.d c H g . n V.i.                        z V.h.& + c H c d %.",
") ) %.d h   1 C 4 m l.l.z.V.V.V.V.V.V.m.l.l.q.4 y B X * c d %.) ",
") ) ) %.6 1 I #.B p *.] 5.7.7.u.B.7.7.7.;.' O.1 I #.B e d %.) ) ",
"H ) ) ~ a =.<.-.V i +.R 3.3.r.Z.A.b.3.3.-.U o.2 R 2.,...s ) ) ) ",
"H H ) ! i 8.3.-.V k a.R 3.r.n.7.7.y.b.3.-.{ w.2 R 3.1.o.0 ) ) H ",
"c H H ( Q N k.A O l c.v.C.Z.N.3.3.t.A.C.M.x.p.  8 @.j.w / ) H H ",
"d c H H ( v M f. .l d.[ 7.u.N.3.3.t.B.7.:.| p.t 9.e.r F ) H H c ",
"%.d c H H G j , & l s.R 3.4.y.C.C.n.6.3.-.} p.. - 5 x H H H c d ",
") %.d c H c 6     p &.R 3.3.4.u.B.6.3.3.-.T O.    e d c H c d %.",
") ) %.d c d $.W   i +.K E 3.3.t.N.3.3.-.L U o.  9 / %.d c d %.) ",
") ) ) %.d %.) ( W . f 0.v.C.C.Z.A.C.C.M.g.X.& 9 / ) ) %.d %.) ) ",
"H ) ) ) %.) ) ) G ^ Q - < 4 4 4 4 4 4 4 , w ^ / H ) ) ) %.) ) ) "
};
