/* XPM */
static char *result[] = {
/* columns rows colors chars-per-pixel */
"32 32 137 2 ",
"   c #010102",
".  c #03040B",
"X  c #09040D",
"o  c #03080E",
"O  c #0F0F0F",
"+  c #0A0610",
"@  c #040812",
"#  c #090A17",
"$  c #040D1B",
"%  c #0C0D1B",
"&  c #120A1B",
"*  c #111111",
"=  c #1E1917",
"-  c #0A0E20",
";  c #0F172B",
":  c #101127",
">  c #13142C",
",  c #021737",
"<  c #041A3C",
"1  c #131631",
"2  c #1A1733",
"3  c #161835",
"4  c #171A39",
"5  c #220F2E",
"6  c #271134",
"7  c #281235",
"8  c #201E35",
"9  c #2D1837",
"0  c #2B143B",
"q  c #341C3B",
"w  c #14223D",
"e  c #362A24",
"r  c #3D2C26",
"t  c #3A2D29",
"y  c #3D332C",
"u  c #3D3430",
"i  c #43332C",
"p  c #4C342D",
"a  c #443933",
"s  c #4B3C34",
"d  c #533A31",
"f  c #54453A",
"g  c #5E483D",
"h  c #051E46",
"j  c #1B1D41",
"k  c #301641",
"l  c #301C47",
"z  c #351A4B",
"x  c #391C50",
"c  c #0B2344",
"v  c #0A264A",
"b  c #0B294F",
"n  c #0B2A51",
"m  c #0D2F5A",
"M  c #122E53",
"N  c #15395E",
"B  c #252244",
"V  c #39265A",
"C  c #173C64",
"Z  c #272E64",
"A  c #3C2561",
"S  c #3F2A6A",
"D  c #30397C",
"F  c #463C45",
"G  c #432E6C",
"H  c #492B6D",
"J  c #4E2F75",
"K  c #522F79",
"L  c #533276",
"P  c #1A4471",
"I  c #5C4D41",
"U  c #564B53",
"Y  c #654D41",
"T  c #6D4A41",
"R  c #67564A",
"E  c #695548",
"W  c #73584B",
"Q  c #715155",
"!  c #7A5F51",
"~  c #4B4566",
"^  c #766669",
"/  c #7A6B6C",
"(  c #7D6470",
")  c #826E5C",
"_  c #806F6C",
"`  c #897462",
"'  c #857374",
"]  c #333C82",
"[  c #373E88",
"{  c #563382",
"}  c #593585",
"|  c #5B3688",
" . c #5E398F",
".. c #5F3F9A",
"X. c #603A91",
"o. c #3D4595",
"O. c #3D479A",
"+. c #434498",
"@. c #65429E",
"#. c #7B6580",
"$. c #464DAA",
"%. c #4D50B3",
"&. c #4D54B9",
"*. c #5253BB",
"=. c #6746A4",
"-. c #654AAD",
";. c #665CB9",
":. c #5259C4",
">. c #5A59CA",
",. c #5C5ED2",
"<. c #635ED5",
"1. c #5E63DC",
"2. c #6162CC",
"3. c #6468CE",
"4. c #6363DE",
"5. c #7666D1",
"6. c #7469D7",
"7. c #7B6CDB",
"8. c #7E73D5",
"9. c #5D65E0",
"0. c #6566E2",
"q. c #6A69E6",
"w. c #646BEE",
"e. c #776EE2",
"r. c #7D71E5",
"t. c #7D73EC",
"y. c #686EF2",
"u. c #6E71F3",
"i. c #7E78F5",
"p. c #82728A",
"a. c #8273D7",
"s. c #897CDE",
"d. c #8172E7",
"f. c #8376ED",
"g. c #827AF6",
"h. c #837CF9",
"j. c #897FFA",
/* pixels */
"h h m m m m m h h h m m m m m h @ . o @ n m m h h h m m m m m h ",
", h h m m m h h , h h m m m @ o         o o < h , h h m m m h h ",
"* , h h m h h , * , h h $ o     5 6 6 6 X   . , * , h h m h h , ",
"P * , h h h , * P * , @     5 6 J { { z 7 7     C * , h h h , * ",
"m P * , h , * P m P     5 7 K {  .X.X.{ { z 6   o C * , h , * P ",
"m m P * , * P m m $   5 0 K X.X.X.X.X.X.X.{ z 7 . @ C * , * P m ",
"m m m P * P m m $   5 k K X.X.X.X.X.X.X.X.X.{ z     n P * P m m ",
"h m m m P m m m .   0 K  .X.X.X.X.X.X.X.X.X.<.,.:.D - n P m m m ",
"h h m m m m m @   5 0 | X.X.X.X.X.X. . .7.d.g.h.y.9.] % n m m h ",
", h h m m m h .   7 K  .X.X.X.X.X. .4.t.j.j.j.j.h.y.O.@ b m h h ",
"* , h h m h h .   7 | X.X.X.X.X.X.<.u.u.( ( ( ( ( 8 ] + n h h , ",
"P * , h h h ,     0 | X.X.X.X.X.<.i.y.#.R W W ! ! r % , h h , * ",
"m P * , h , * o   7 x } X.X.X.X.t.u.~ a a a f g Y i * , h , * P ",
"m m P * , * P .   0 k } X.X.X.X.f.~ u y y y y i r i C * , * P m ",
"m m m P * P m o   . 0 x } X.X.X.f.F y y y y y y e r M P * P m m ",
"h m m m P m m o     7 k x } X.X.q.U u y y y y s p r M m P m m m ",
"h h m m m m m .     X 0 k x x | 0.^ R I I I Y E p r M m m m m h ",
", h h m m m h ,       . 0 k k z O.3._ ) ) ) ! T i w h m m m h h ",
"* , h h m h h ,         . X 0 k l o.a.s.Q T d i = , h h m h h , ",
"P * , h h h , * N           X . X % V 0.8.a.8.2.; O , h h h , * ",
"m P * , h , * P m o     5 G J 0 7 H { @.=.=.=.G . C * , h , * P ",
"m m P * , * P m $     $.,.r.d.7.,.A | X. . .X.*.# b P * , * P m ",
"m m m P * P m m . Z &.4 >  .=.H 3 *.4.r.d.d.4.$.+ n m P * P m m ",
"h m m m P m m m . D 4 . 5 | X.{ + : > o.G S A o.+ n m m P m m m ",
"h h m m m m m $   D .   0 | <.+..     ] { { z [ @ < m m m m m h ",
", h h m m m h .   :.] . 0 5.p./ t 6 . :... .>.1 . < h m m m h h ",
"* , h h m h h .   ,.3   . 2.' ` i L 0 ,.0.4.w.%   , h h m h h , ",
"P * , h h h ,   Z 3 6 . Z O.F s q | z e.-.S 1.] . O , h h h , * ",
"m P * , h , * o D k 0   # % 9 q L  .z r.@.z 2 ] @ C * , h , * P ",
"m m P * , O P . D :.V 6 ;.l J } X.X.z r.@.z %.o.. v P * , * P m ",
"m m m P * P m v % > *.6.B 0 } X.X.X.z 2 5.2.j % c m m P * P m m ",
"h m m m P m m m < v 1 2   X & & & & X   > > c v h m m m P m m m "
};
