/* XPM */
static char *result[] = {
/* columns rows colors chars-per-pixel */
"32 32 223 2 ",
"   c #111111",
".  c #101212",
"X  c #111212",
"o  c #111414",
"O  c #111515",
"+  c #121515",
"@  c #121616",
"#  c #131818",
"$  c #121919",
"%  c #131919",
"&  c #141B1B",
"*  c #131C1D",
"=  c #141C1C",
"-  c #171C1D",
";  c #141C1E",
":  c #161E1E",
">  c #1C1E1C",
",  c #1B211E",
"<  c #20201D",
"1  c #21211E",
"2  c #27221E",
"3  c #0F1921",
"4  c #0A1827",
"5  c #0C1824",
"6  c #07172D",
"7  c #06172F",
"8  c #09182A",
"9  c #0D1B2A",
"0  c #0D1C2D",
"q  c #101B25",
"w  c #121E25",
"e  c #1B1E21",
"r  c #121F2A",
"t  c #051730",
"y  c #041731",
"u  c #021634",
"i  c #021737",
"p  c #0A1B32",
"a  c #0C1C30",
"s  c #071D3E",
"d  c #172020",
"f  c #142027",
"g  c #1C2325",
"h  c #1A2526",
"j  c #1B2727",
"k  c #11202B",
"l  c #14232D",
"z  c #1C2828",
"x  c #1D2A2A",
"c  c #0F263F",
"v  c #102132",
"b  c #102336",
"n  c #10243A",
"m  c #15293A",
"M  c #222521",
"N  c #222722",
"B  c #212226",
"V  c #24252A",
"C  c #26242A",
"Z  c #2C272F",
"A  c #202F2F",
"S  c #2A2D2A",
"D  c #382A22",
"F  c #392A22",
"G  c #2E2B33",
"H  c #352C38",
"J  c #243032",
"K  c #243636",
"L  c #2E3938",
"P  c #613929",
"I  c #643B29",
"U  c #7B442E",
"Y  c #051D42",
"T  c #041D44",
"R  c #051E46",
"E  c #0F2743",
"W  c #0D2B4E",
"Q  c #172F45",
"!  c #16314A",
"~  c #16314B",
"^  c #0D2C52",
"/  c #0D2D55",
"(  c #0C2D57",
")  c #0D2F5A",
"_  c #173552",
"`  c #413241",
"'  c #483E4D",
"]  c #503A4E",
"[  c #503B4E",
"{  c #523F52",
"}  c #543D52",
"|  c #593E51",
" . c #5A3F51",
".. c #384249",
"X. c #324C4D",
"o. c #324D4E",
"O. c #395758",
"+. c #3C5C5E",
"@. c #1A4471",
"#. c #5D5840",
"$. c #574053",
"%. c #544155",
"&. c #544356",
"*. c #544357",
"=. c #5F4050",
"-. c #544658",
";. c #544A5B",
":. c #544A5C",
">. c #544F5F",
",. c #445058",
"<. c #45515A",
"1. c #69444F",
"2. c #6E464E",
"3. c #70464E",
"4. c #72474E",
"5. c #73474E",
"6. c #78494D",
"7. c #634250",
"8. c #6F4850",
"9. c #654D58",
"0. c #69525A",
"q. c #72565A",
"w. c #6C6459",
"e. c #495F66",
"r. c #545362",
"t. c #545765",
"y. c #545B68",
"u. c #585D6D",
"i. c #456C6D",
"p. c #55626D",
"a. c #556771",
"s. c #556B74",
"d. c #556F77",
"f. c #497274",
"g. c #4C7374",
"h. c #55757B",
"j. c #55797E",
"k. c #736263",
"l. c #60677B",
"z. c #617C78",
"x. c #707A75",
"c. c #874930",
"v. c #874A38",
"b. c #944E32",
"n. c #995033",
"m. c #985B3C",
"M. c #A05B3A",
"N. c #A7593A",
"B. c #B35F3B",
"V. c #BB5D39",
"C. c #C5613B",
"Z. c #C8623C",
"A. c #804C4C",
"S. c #894F4B",
"D. c #89514D",
"F. c #855C48",
"G. c #995347",
"H. c #9B5549",
"J. c #9F5648",
"K. c #975C4B",
"L. c #965B50",
"P. c #A95947",
"I. c #AC5B47",
"U. c #A35848",
"Y. c #B15C46",
"T. c #B85F45",
"R. c #9F6A58",
"E. c #8D7353",
"W. c #8A6B61",
"Q. c #C76444",
"!. c #CB6543",
"~. c #CA6F4C",
"^. c #D16742",
"/. c #D06743",
"(. c #D46842",
"). c #DB6A41",
"_. c #D96A42",
"`. c #DA6B42",
"'. c #D96C44",
"]. c #E06C41",
"[. c #E07144",
"{. c #A2885B",
"}. c #A69665",
"|. c #B29875",
" X c #C2805B",
".X c #E08051",
"XX c #D29567",
"oX c #DB9B63",
"OX c #CFAA79",
"+X c #D8AA75",
"@X c #F4C27E",
"#X c #557F83",
"$X c #626B80",
"%X c #637F8F",
"&X c #558386",
"*X c #558486",
"=X c #558688",
"-X c #568789",
";X c #588A8E",
":X c #5B8D92",
">X c #5E8D95",
",X c #5E9197",
"<X c #5F939A",
"1X c #69918A",
"2X c #61969E",
"3X c #739B96",
"4X c #7FA196",
"5X c #6398A0",
"6X c #72A7B9",
"7X c #70A9B9",
"8X c #74AEC0",
"9X c #76B1C4",
"0X c #76B2C4",
"qX c #78B0C5",
"wX c #78B2C6",
"eX c #7BB8CD",
"rX c #87A18B",
"tX c #8DA48B",
"yX c #E0BB80",
"uX c #9BC1BE",
"iX c #A8C1AD",
"pX c #BDCAA9",
"aX c #DFD090",
/* pixels */
"R R ) ) ) ) ) R R R ) ) ) ) ) R R R ) ) ) ) ) R R R ) ) ) ) ) R ",
"i R R ) ) ) R R i R R ) ) ) R R i R R ) ) ) R R i R R ) ) ) R R ",
"  i R R ) R R i   i R R ) R R i   i R R ) R R i   i R R ) R R i ",
"@.  i R R R i   @.  i R R R i   @.  i R R R i   @.  i R R R i   ",
") @.  i R i   @.) @.  i R i   @.) @.  i R i   @.) @.  i R i   @.",
") ) @.  i   @.) ) ) @.  i   @.) ) ) @.  i   @.) ) ) @.  i   @.) ",
") ) ) @.  @.) ) ) ) ) @.  @.) ) ) ) ) @.  @.) ) ) ) ) @.  @.) ) ",
"R ) ) ) @.) ) ) R ) ) ) @.) ) ) R ) ) ) @.) ) ) R ) ) ) @.) ) ) ",
"R R ) ) ) ( E 0 0 0 b b b b b 0 0 0 b b b b b 0 0 0 c ^ ) ) ) R ",
"i R R ) ) / 9 : h z z z z z z z z z z z z z z g e - q W ) ) R R ",
"  i R R ) Y 9 A +.i.i.i.i.i.i.i.i.i.i.i.i.i.i.,.` C q s ) R R i ",
"@.  i R R Y 5 K f.1XrX3X2X2X2X2X2X2X2X<X;X-X-Xp.] Z 3 s R R i   ",
") @.  i R u @ K f.tXaXiX9X9X9X9X9X9X9X7X,X-X-Xp.] Z # y R i   @.",
") ) @.  t + l K f.4XpXuXeXeXeXeXeXeXeX8X<X-X-Xp.] Z f O 7   @.) ",
") ) ) @.+ & > L g.5X0XwXqXqXqXqXqXqXqX6X>X&X=Xp.[ G d = @ @.) ) ",
"R ) ) ) Q > I F.z.:X5X%X$X$X$X$X$X$X$Xl.u.a.*Xp.{ <.o.j m ) ) ) ",
"R R ) ) n 1 m. Xx.j.j.t.$.0.q.8.2.2.2.1. .>.h.y.%.s.i.A v ) ) R ",
"i R R ) n M {.OXk.:.:.&.9.|.+X~.Q.Q.Q.Y.3.%.;.*.%.s.i.A v ) R R ",
"  i R R n N }.yXR.S.S.S.L.XXoXM.b.b.C.^.J.S.S.S.D.W.w.S v R R i ",
"@.  i R a N }.@X.X_._._.`.[.B.F < < n.].)._._._._.'.N.D 9 R i   ",
") @.  i a , #.E.K.H.H.H.U.!.Z.c.U U V.(.I.H.H.H.G.v.P 2 9 i   @.",
") ) @.  8 % ; V ' -.-.%.7.P./././././.T.5.} } } ] Z * $ 4   @.) ",
") ) ) @.X _ k J e.d.d.r.| 4.A.A.A.A.A.6.=.} } } ] Z w ! . @.) ) ",
"R ) ) ) @./ v K f.-X-Xa.>.>.>.>.>.>.>.>.>.>.>.-.] Z r W @.) ) ) ",
"R R ) ) ) / v K f.-X-X#Xj.j.j.j.j.j.j.j.j.j.j.y.] Z r W ) ) ) R ",
"i R R ) ) / 9 x X.O.O.O.O.O.O.O.O.O.O.O.O.O.O...H B q W ) ) R R ",
"  i R R ) Y 9 & & & & & & & & & & & & & & & & & & & q s ) R R i ",
"@.  i R R T 7 o ~ o 8 p p p 8 o ~ o 8 p p p 8 o ~ o 6 Y R R i   ",
") @.  i R i   @.) @.  i R i   @.) @.  i R i   @.) @.  i R i   @.",
") ) @.  i   @.) ) ) @.  i   @.) ) ) @.  i   @.) ) ) @.  i   @.) ",
") ) ) @.  @.) ) ) ) ) @.  @.) ) ) ) ) @.  @.) ) ) ) ) @.  @.) ) ",
"R ) ) ) @.) ) ) R ) ) ) @.) ) ) R ) ) ) @.) ) ) R ) ) ) @.) ) ) "
};
