/* XPM */
static char *result[] = {
/* columns rows colors chars-per-pixel */
"32 32 249 2 ",
"   c black",
".  c #0A0000",
"X  c #0C0000",
"o  c #0D0000",
"O  c #0F0000",
"+  c gray3",
"@  c gray4",
"#  c #0C0C0D",
"$  c gray5",
"%  c #0E0E0E",
"&  c #120000",
"*  c #180001",
"=  c #1B0001",
"-  c #111111",
";  c #131313",
":  c #161616",
">  c #181818",
",  c #191919",
"<  c #19191A",
"1  c #1B1B1B",
"2  c #1C1C1D",
"3  c #1D1D1D",
"4  c #1D1D1E",
"5  c #1E1E1F",
"6  c #240002",
"7  c #280001",
"8  c #2B0002",
"9  c #2D0002",
"0  c #2F0002",
"q  c #2E0103",
"w  c #310103",
"e  c #330102",
"r  c #350103",
"t  c #360103",
"y  c #390103",
"u  c #3F0103",
"i  c #3C0104",
"p  c #3E0204",
"a  c #36080B",
"s  c #351B1C",
"d  c #3A1819",
"f  c #0F1B2D",
"g  c #0D1A2F",
"h  c #021737",
"j  c #0E1D36",
"k  c #0F1F39",
"l  c #0D1F3B",
"z  c #101E35",
"x  c #111F35",
"c  c #101F38",
"v  c #1E2125",
"b  c #1F2327",
"n  c #1D232C",
"m  c #152031",
"M  c #1C2635",
"N  c #17253D",
"B  c #17263F",
"V  c #1A2639",
"C  c #18273A",
"Z  c #17283D",
"A  c #202021",
"S  c #212122",
"D  c #222222",
"F  c #222223",
"G  c #252525",
"H  c #252526",
"J  c #262627",
"K  c #272727",
"L  c #20242A",
"P  c #272729",
"I  c #24272B",
"U  c #26272B",
"Y  c #20252D",
"T  c #22262D",
"R  c #23272D",
"E  c #25292D",
"W  c #26282D",
"Q  c #272A2E",
"!  c #262A2F",
"~  c #282828",
"^  c #282829",
"/  c gray16",
"(  c #2A2A2A",
")  c #2A2A2B",
"_  c #2B2B2C",
"`  c #2B2B2D",
"'  c #2C2C2D",
"]  c #2D2D2E",
"[  c #2D2D2F",
"{  c gray18",
"}  c #2E2E2F",
"|  c #232830",
" . c #262930",
".. c #282B30",
"X. c #2E2E30",
"o. c #2F2F30",
"O. c #222D3F",
"+. c #303031",
"@. c #313132",
"#. c #313133",
"$. c #323233",
"%. c #323234",
"&. c #333334",
"*. c #343436",
"=. c #353536",
"-. c #353537",
";. c #363637",
":. c #373737",
">. c #363638",
",. c #373738",
"<. c #373739",
"1. c #383839",
"2. c #39393A",
"3. c #39393B",
"4. c #3A3A3B",
"5. c #3B3B3C",
"6. c #3C3C3D",
"7. c gray24",
"8. c #3E3E3E",
"9. c #3E3E3F",
"0. c #490104",
"q. c #4B0206",
"w. c #4C0104",
"e. c #430608",
"r. c #41070A",
"t. c #44080A",
"y. c #540206",
"u. c #560206",
"i. c #5B0307",
"p. c #550208",
"a. c #78050B",
"s. c #7F070D",
"d. c #700B10",
"f. c #7C0A11",
"g. c #051E46",
"h. c #152840",
"j. c #162840",
"k. c #152942",
"l. c #142943",
"z. c #132A47",
"x. c #152A44",
"c. c #142A46",
"v. c #1B2940",
"b. c #172F4D",
"n. c #1C2F48",
"m. c #0D2F5A",
"M. c #152F50",
"N. c #1C3855",
"B. c #1D3759",
"V. c #232E40",
"C. c #213044",
"Z. c #253144",
"A. c #20304B",
"S. c #21344C",
"D. c #26344C",
"F. c #273A4E",
"G. c #303740",
"H. c #303B47",
"J. c #373D47",
"K. c #3F3F40",
"L. c #343C49",
"P. c #313C4E",
"I. c #2F3E51",
"U. c #223A58",
"Y. c #283D58",
"T. c #303F52",
"R. c #3B414C",
"E. c #3D4757",
"W. c #1A4471",
"Q. c #254464",
"!. c #2D4967",
"~. c #27476A",
"^. c #284769",
"/. c #3A4D61",
"(. c gray25",
"). c #404041",
"_. c #414141",
"`. c #414142",
"'. c gray26",
"]. c #424243",
"[. c #434344",
"{. c #444444",
"}. c #444445",
"|. c #454546",
" X c #464646",
".X c #464647",
"XX c gray28",
"oX c #474748",
"OX c #42464E",
"+X c #484848",
"@X c #484849",
"#X c #494949",
"$X c #49494A",
"%X c #4A4A4B",
"&X c #4B4B4B",
"*X c #4B4B4C",
"=X c #4C4C4C",
"-X c #4C4C4D",
";X c #4D4D4E",
":X c #4E4E4F",
">X c #414852",
",X c #434852",
"<X c #464950",
"1X c #424A56",
"2X c #444C56",
"3X c #4E4E50",
"4X c #4F4F50",
"5X c #4F4F51",
"6X c #4A5159",
"7X c #48505B",
"8X c #505051",
"9X c #505052",
"0X c #515152",
"qX c #515153",
"wX c #525254",
"eX c #545456",
"rX c #585859",
"tX c #59595B",
"yX c #5A5A5B",
"uX c #5A5A5C",
"iX c #616163",
"pX c #626264",
"aX c #646466",
"sX c #82060D",
"dX c #82070E",
"fX c #8A060F",
"gX c #8F0710",
"hX c #920910",
"jX c #950911",
"kX c #891319",
"lX c #8F171E",
"zX c #A10912",
"xX c #B10B15",
"cX c #B40B15",
"vX c #B90C16",
"bX c #A7161E",
"nX c #A71A21",
"mX c #CC1B24",
"MX c #D72029",
"NX c #DB242E",
"BX c #DE2B34",
"VX c #F02731",
"CX c #F22D37",
"ZX c #E8323B",
"AX c #EC3C44",
"SX c #F04149",
"DX c #F24249",
"FX c #FC454C",
"GX c #FC4B51",
/* pixels */
"g.g.m.m.m.m.m.g.g.g.m.m.m.Z b v v v l.m.m.m.m.g.g.g.m.m.m.m.m.g.",
"h g.g.m.m.m.g.g.h g.g.j.n Q o.o.o.o.I n c.m.g.g.h g.g.m.m.m.g.g.",
"- h g.g.m.g.g.h - h x W o.1.).).).).;.o.E k g.h - h g.g.m.g.g.h ",
"W.- h g.g.g.h - W.> U 1.).'.*X0X0X$X'.).;.I g - W.- h g.g.g.h - ",
"m.W.- h g.h - W.j...1.'.*X0XyXiXiXrX0X$X'.;.G N.m.W.- h g.h - W.",
"m.m.W.- h - W.k.! ,.'.%XwXuXpXaXaXiXtXqX#X_.=.| z.m.W.- h - W.m.",
"m.m.m.W.- W.m.C _ 6.%XwXeX4X=X=X=X=X8XeXqX#X3./ h.m.m.W.- W.m.m.",
"g.m.m.m.W.m.k.! ,.@X*X+X+X9.>.>.>.>.).+X+X-X.X=.T z.m.m.W.m.m.m.",
"g.g.m.m.m.m.C @._..XK.<.@./ K K K K ( $.<.`. X).{ z m.m.m.m.m.g.",
"h g.g.m.m.x.R 2.7.<.} < # @ @ @ @ @ @ $ 2 +.<.9.:.Y l m.m.m.g.g.",
"- h g.g.m.m @.4.*.` d e.p e &     * t p t.s ] =.5.{ z g.m.g.g.h ",
"W.- h g.c R %.*.` d f.vXcXfXq.8 8 p.gXvXcXd.s ] =.#.L l g.g.h - ",
"m.W.- h m _ %.%.3 r.xXCXSXNXs.u u hXBXDXVXzXa S %.%./ f g.h - W.",
"m.m.W.2  .=.>.' - q sXMXGXZXdXu u jXAXFXmXa.6 : [ 1.&.P j - W.m.",
"m.m.m.F.1.4.*./ % o y sXnXkXy.7 9 i.lXbXa.w . ; _ -.5.>.5 W.m.m.",
"g.m.b.G.(.3.%./ , + O i u.0.8 X O 0 w.u.r X @ 1 _ %.6.K.H.M.m.m.",
"g.g.C.6.{.K.;./ D , + O = = X     O = = X @ 1 D _ <.(.{.3.n.m.g.",
"h g.V.(.{.{.3.} _ H , ; +             @ ; 1 K _ X.6.{.{.K.S.g.g.",
"- h O.K.#XoX3.%.%.} H K 4 ; ; ; ; ; ; A H K X.%.%.6.#XoX8.v.g.h ",
"W.- M 6.;X&X9.-.%.%.] X.] G J ) ) G J X.] X.%.%.,.(.;X&X3.N h - ",
"m.W.~ }.9X4XXX9.-.,.-.%.,.@.X.%.%.] &.-.%.,.-.,.(.@X9X4X].V - W.",
"m.m.Q.`.eXeX&X{.9.(.3.,.(.9.-.%.%.,.(.9.-.6.9.(.{.;XeXeXJ.1 W.m.",
"m.m.m./.eXeX3XXX{.oX`.K.{.oX`.-.;.[.XX{.8.[.XX{.oX8XeXeX] W.m.m.",
"g.m.m.U.7X8X9X3XXX;X&X{.oX8X&X8.K.;X3XXX{.;X&XoX8X8X9X1X~.m.m.m.",
"g.g.m.m.U.I.>XeX3X8X&X{.;XeX3XXXoX8XeX&X{.;X3X8XeXR.T.B.m.m.m.g.",
"h g.g.m.m.m.P.eXeXeX3XXX;XeXeX&X;XeXeX&XoX8XeXeXeXD.g.m.m.m.g.g.",
"- h g.g.m.g.A.<X|.<XeX:X5XeXeX:X5XeXeX:X5XeX,X<X|.B g.g.m.g.g.h ",
"W.- h g.g.g.h ^ ^.;.eXeXeXeXeXeXeXeXeXeXeXeXZ.^ ^.- h g.g.g.h - ",
"m.W.- h g.h - W.m.!.@XeX,X<XeXeXeXeX|.<XeXOXF W.m.W.- h g.h - W.",
"m.m.W.- h - W.m.m.m.!.4.B ^ 6XeXeX2X^.^ L.F W.m.m.m.W.- h - W.m.",
"m.m.m.W.- W.m.m.m.m.m.W.- W.Y.E.E.U.m.W.- W.m.m.m.m.m.W.- W.m.m.",
"g.m.m.m.W.m.m.m.g.m.m.m.W.m.m.m.g.m.m.m.W.m.m.m.g.m.m.m.W.m.m.m."
};
