/* XPM */
static char *_0e8ff1c001c4647fafc850e212e9f44TVNmP59cfKspoKY6[] = {
/* columns rows colors chars-per-pixel */
"32 32 247 2 ",
"   c #020301",
".  c #0C0302",
"X  c #020A02",
"o  c #0B0B03",
"O  c #03020B",
"+  c #0B010B",
"@  c #010C0D",
"#  c #0C0B0A",
"$  c #130102",
"%  c #130B04",
"&  c #12050B",
"*  c #130B0C",
"=  c #1B0809",
"-  c #021404",
";  c #0D1203",
":  c #0C130B",
">  c #05170B",
",  c #191500",
"<  c #12150B",
"1  c #020315",
"2  c #020B14",
"3  c #0B0B13",
"4  c #090619",
"5  c #160717",
"6  c #011312",
"7  c #091214",
"8  c #02111E",
"9  c #0A1919",
"0  c #151414",
"q  c #131C13",
"w  c #1D1D13",
"e  c #13131B",
"r  c #18191B",
"t  c #260C0B",
"y  c #2B1402",
"u  c #271509",
"i  c #2A0815",
"p  c #231D1B",
"a  c #261618",
"s  c #351918",
"d  c #301600",
"f  c #062418",
"g  c #1C241D",
"h  c #182319",
"j  c #1F321E",
"k  c #2C2306",
"l  c #3C2503",
"z  c #362907",
"x  c #24241C",
"c  c #2C231C",
"v  c #272718",
"b  c #392717",
"n  c #393119",
"m  c #26321E",
"M  c #080021",
"N  c #190D25",
"B  c #0A1A26",
"V  c #141924",
"C  c #111A2A",
"Z  c #191726",
"A  c #1D1F34",
"S  c #290F24",
"D  c #221D25",
"F  c #2B1C23",
"G  c #251A2C",
"H  c #221D34",
"J  c #301A26",
"K  c #152123",
"L  c #1A2324",
"P  c #19262B",
"I  c #1D2239",
"U  c #2A2324",
"Y  c #272229",
"T  c #2A2626",
"R  c #3A2225",
"E  c #352725",
"W  c #383727",
"Q  c #292832",
"!  c #2F372C",
"~  c #421E0B",
"^  c #401F10",
"/  c #432805",
"(  c #442418",
")  c #4B371A",
"_  c #553C1E",
"`  c #552F12",
"'  c #431723",
"]  c #461F32",
"[  c #452B26",
"{  c #552C2A",
"}  c #46322C",
"|  c #59352C",
" . c #563527",
".. c #492835",
"X. c #582D32",
"o. c #463735",
"O. c #543E3B",
"+. c #5C3938",
"@. c #673637",
"#. c #753935",
"$. c #672E34",
"%. c #3A4330",
"&. c #47411D",
"*. c #69431A",
"=. c #4C4426",
"-. c #534627",
";. c #5F413C",
":. c #504A32",
">. c #464F30",
",. c #6C4C22",
"<. c #7E483C",
"1. c #705329",
"2. c #736639",
"3. c #251E40",
"4. c #363F46",
"5. c #4D2E46",
"6. c #582E44",
"7. c #583646",
"8. c #453349",
"9. c #733746",
"0. c #7C3E55",
"q. c #723544",
"w. c #3A4458",
"e. c #2E4356",
"r. c #575944",
"t. c #6A4648",
"y. c #784A46",
"u. c #695749",
"i. c #7D5846",
"p. c #784355",
"a. c #7B5857",
"s. c #6B445B",
"d. c #726240",
"f. c #7B4A66",
"g. c #646B73",
"h. c #875A3D",
"j. c #9F5E3D",
"k. c #89492F",
"l. c #A34B33",
"z. c #AA523C",
"x. c #8F643A",
"c. c #A5643C",
"v. c #8A3F50",
"b. c #864547",
"n. c #8A5747",
"m. c #8C4B53",
"M. c #9E4F5C",
"N. c #954558",
"B. c #825458",
"V. c #985757",
"C. c #944947",
"Z. c #A25B49",
"A. c #A55A59",
"S. c #B75B46",
"D. c #976848",
"F. c #986A57",
"G. c #8E704F",
"H. c #A76647",
"J. c #A8784C",
"K. c #B67C48",
"L. c #A56854",
"P. c #B46555",
"I. c #A7735C",
"U. c #B67856",
"Y. c #9A4E62",
"T. c #99556A",
"R. c #A65868",
"E. c #9E6E68",
"W. c #997869",
"Q. c #8F796B",
"!. c #A86B69",
"~. c #A87967",
"^. c #BA7A64",
"/. c #B66872",
"(. c #AB7474",
"). c #B67475",
"_. c #C26C4E",
"`. c #C8775B",
"'. c #CD6A57",
"]. c #C9706C",
"[. c #BE8355",
"{. c #B89359",
"}. c #B3894F",
"|. c #938962",
" X c #818562",
".X c #B98666",
"XX c #BE9764",
"oX c #AC8E6E",
"OX c #C78957",
"+X c #D18854",
"@X c #D6935D",
"#X c #CA894D",
"$X c #E49C5D",
"%X c #C8886A",
"&X c #D38B69",
"*X c #C79164",
"=X c #D89868",
"-X c #D58973",
";X c #D29E74",
":X c #D69579",
">X c #CB9278",
",X c #E1996A",
"<X c #E68D78",
"1X c #E39B7B",
"2X c #EB9C7B",
"3X c #E79777",
"4X c #EE9270",
"5X c #D9A36A",
"6X c #D8A37A",
"7X c #C5A974",
"8X c #F3A661",
"9X c #FCB46D",
"0X c #E8A579",
"qX c #F4A97B",
"wX c #FCB375",
"eX c #FDB67C",
"rX c #FDBA78",
"tX c #FFC57D",
"yX c #989C94",
"uX c #B1AE86",
"iX c #9CA2B0",
"pX c #B5B9AB",
"aX c #DB9984",
"sX c #EA9982",
"dX c #F49889",
"fX c #D8BC8A",
"gX c #D0B694",
"hX c #E3A486",
"jX c #F7A982",
"kX c #FEB695",
"lX c #F2AF89",
"zX c #D1C598",
"xX c #FFC881",
"cX c #FFD395",
"vX c #DCC8A3",
"bX c #EDD0AB",
"nX c #FFEDBA",
"mX c #D4CECF",
"MX c #E9D2D6",
"NX c #FDEED4",
"BX c #D7D8E7",
"VX c #DFE3E4",
"CX c #FCFAED",
"ZX c #FBEEF2",
"AX c #FDFDFE",
"SX c #FCFBF8",
"DX c #ECECEC",
/* pixels */
"U F U 0 - - < F @.i O 2 @ X @   O .     . . Z w.P 3 < : f P I 3.",
"0 # 3 q j m r 0 t $ O O X   O   O O     .   O 2 e 0 E c < 7 4 V ",
":   . x r.u.E = $ $ + # - X o & O 1 o o < < @ 2 # E u.u.b $   e ",
"g : a O.|.W.O.t s  .} ! n n ( } R o.b b E W W E i @.~.W.| t % g ",
"h a X.B.(.(.y.@.n.I.!.V.G.F.F.L.F.F.P.D.D.G.F.B.#.b.!.^.C.{ p h ",
"% U p.T.!.M.m.V.>XhXhXaXaXsXsX3XsX0XqX2X5XhXsX:XZ.C.A.R.A.y.T 6 ",
"# R 0.M.M.C.b.L.-X2XdX<X3X2X3X<XjX3X4X4X4X4X2X-XA.v.N.Y.Y.p.Q 8 ",
"0 F 6.0.m.v.@.y.P.`.'.'._.`.`.`.H.j.S.U.P.`.`.P.v.q.0.N.0.6.A B ",
"e e S ..a.u.[ ^ k.c.S.z.k.c.J.x.) u b $.C.P.Z.k.' ] f.f...a N B ",
"7 2 5 J o.o.w s *.Z.z.l.H.x.*.&.n k . t #.P.L.<.s i 8.7.J 5 1 B ",
"e e N S Q h # b F.OX'.`.6XJ.z z |. Xm w n.-XOXD.b # D Q 0 ; 2 9 ",
"Z Z G Z L : . } ^.0XdX-X.X,.l i.vXzX>.k L.jXqXJ.) . # Z q h h L ",
"Y Y G G r   . | ^.kXkXL.` / i.vXnXfX&.z J.eXrX#X_ . O 9 h h g j ",
"g U G e #   $ | %XkX:X*.l 2.gXNXfXx., , 1.=XrXOX .. O 2 ; h g g ",
"q L K 2     $ | ;X7X1.z 2.zXNXbX<.= O 2 ; 2.0X-X$.& 1 1 & p r g ",
"q K V O     $  .aXXXl z oXCXCXmXa.J w.e.X } ;X:XX.5 1 1   a r e ",
"r V C 1     . _ 6X*Xz W mXSXSXZXmXmXBXiXh / 5X5XO.1 1 1 O q r D ",
"D D I 4     . _ ;X*Xb v yXmXmXMXSXZXAXBX=.k }.5XO.4 1 2 6 K p F ",
"c p Y 3 .   o _ ;X;X}   m %.e.g.VXAXAXmXm z #X5XO.O O @ : v s c ",
"c U Y 0 %   X =.XX0Xx.z z ; X ! pXZXDXyX%.1.5X=X| + O - < v c c ",
"L K P V r : X =.*XrX@XOX{.2., n uXvXG.:.G.7X9X#X| + 7 f 9 P K L ",
"9 6 2 Z E x - ( *XlX9XtXcX{.z -.gX7Xy $ }.cXtX#X( & F Q K 6 2 9 ",
"q   & R t.;.a b OXrX9XtXtX{.z :.zX7X/ y }.cXxXK./ a t.t.T o   0 ",
"j ; i @.(.!.o. .[.wX8X8XrX{.d u |.oX,.*.}.lXeX[.` X.!.(.;.u % U ",
"> v X.m././.p.t.U.$X#X$XwX#X .$ y *.U.1X&X+X,XU.y.t.!.).m.X.x q ",
"- g s.R.].Y.9.B..X=X+X$XwX=Xh.~ y 1.=XkX3X&X,X^.a.t.V./.R.9.U 2 ",
"> P s.T.R.q.R +..X6X6X,X0X,X%X~.D..X0XjX2X1X1X^.O.J @.T.T.s.Q 8 ",
"f P 8.p.N.#.i a <.I.^.L.H.D.I.~.oX|.H.Z.Z.I.I.i.a a @.m.p.5.Z B ",
"< * s X.v.p.R % ( ( } ' ( [ [ W ....n b ( { { R 3 E y.b.X.s 5 p ",
"; $ i ' $.@.T : % $ 5 N 5 5   # 4 5 < o % * $ + e Q ;. .s = $ = ",
"e 3 N S a v f f * $ 4 M O   X X + +   X X O + 5 B C x h 0 e 4 V ",
"P V Q G 0 > f f W 5 4 M 4   O   + +   X X - 5 8.I B > : L A B I "
};
